<?xml version="1.0" encoding="iso-8859-1"?>
<!-- Generator: Adobe Illustrator 23.0.1, SVG Export Plug-In . SVG Version: 6.00 Build 0)  -->
<svg version="1.1" id="Camada_3" xmlns="http://www.w3.org/2000/svg" xmlns:xlink="http://www.w3.org/1999/xlink" x="0px" y="0px"
	 viewBox="0 0 301.122 345.191" style="enable-background:new 0 0 301.122 345.191;" xml:space="preserve">
<g>
	<path style="fill:#F4F6F8;" d="M68.887,275.331c0,0-14.914-7.139-26.063-1.948c0,0-12.085,4.17-14.043,14.383
		c0,0-2.519,16.061,12.783,18.073C56.867,307.851,68.887,275.331,68.887,275.331z"/>
	<path style="fill:#F4F6F8;" d="M158.575,320.447h-6.985c0,0-5.447-1.872-8.681-10.128s-1.362-16.155-1.362-16.155h14.789
		L158.575,320.447z"/>
	<path style="fill:#EBEDEF;" d="M155.448,295.473l2.294,24.974l23.405,1.298l18.316,4.958c0,0,2.937-33.574-2.25-39.83
		s-39.471,0.99-39.471,0.99L155.448,295.473z"/>
	<path style="fill:#EBEDEF;" d="M84.699,278.423c0,0-4.123-0.986-9.673-1.995c-0.649-0.118-1.317-0.236-2.001-0.353
		c-0.27-0.046-0.543-0.092-0.817-0.138c-0.553-0.092-2.697-0.425-3.805-0.589c-0.197-0.029-0.361-0.053-0.478-0.07
		c-5.953-0.833-12.229-1.342-16.506-0.695c0,0-15.158-0.106-19.111,16.404c0,0-2.846,15.205,14.813,15.673
		c17.275,0.458,0.468,0.157,0.468,0.157s30.979,0.439,35.404,2.347c0,0,18.468,1.326,20.681,0l8.596-12.135l-7.574-17.872
		l-14.043-0.936L84.699,278.423"/>
	<path style="fill:#F4F6F8;" d="M157.93,320.56c0,0,3.702,3.933,8.553,2.185c4.851-1.748,27.447,2.331,30.766,3.933
		c3.319,1.602-13.702-11.989-14.255-16.359L157.93,320.56z"/>
	<path style="fill:#F4F6F8;" d="M49.994,274.809l9.17,12.106l38.806,1.795l-12.04-10.136
		C85.93,278.574,52.147,271.336,49.994,274.809z"/>
	<path style="fill:#F4F6F8;" d="M41.692,306.068c0,0,3.855-1.493,14.88-8.553l36.762,12.239c0,0-34.832-1.026-51.283-3.591"/>
	<path style="fill:#F4F6F8;" d="M85.93,278.574c0,0-4.523,27.208,0,28.714c4.523,1.506,8.979,2.465,8.979,2.465l9.894-0.924
		l5.416-18.511l-13.437-11.69L85.93,278.574"/>
	<path style="fill:#F4F6F8;" d="M156.867,298.319l24.936,1.429c0,0,12.297-12.493,13.361-12.876c1.064-0.383-27.531,0-27.531,0
		l-11.296,1.838L156.867,298.319"/>
	<path style="fill:#EAC0A9;" d="M107.058,294.021c0,0-5.957,12.383-2.255,14.809c3.702,2.426,25.331-8.645,25.331-8.645l2.754-3.053
		l-8.936-6.812h-9.064l-8.335,4.667"/>
	<polygon style="fill:#4B738C;" points="96.781,216.194 94.909,264.979 175.798,274.596 206.824,249.66 165.907,227.703 	"/>
	<path style="fill:#FFD9C0;" d="M108.867,288.957c0,0,32.766,16.851,34.043,21.362c0,0-1.277-8.511-0.936-13.957
		c0,0,15.319,1.447,14.894,1.957c0,0-0.046-5.037,1.169-6.561s0,0,0,0l-15.977-23.481l-26.809,5.021L108.867,288.957z"/>
	<path style="fill:#6593AA;" d="M106.824,295.766c0,0,5.021,3.934,14.979,0c0,0-10.34-3.745-2.553-14.894
		c0,0,7.064-12.681,17.191-8.936l-2.259-4.541C134.182,267.395,130.484,256.957,106.824,295.766z"/>
	<path style="fill:#5886A8;" d="M135.01,269.06l56.239-30.145l29.277-24.511c0,0,20.085-2.723,36.766,0s2.736,8.897,2.736,8.897
		s7.817,5.401,1.349,26.848c0,0-4.085,10.152-15.319,15.969l-55.727,20.331c0,0-23.464,2.261-31.898,5.572
		C158.433,292.021,139.111,279.461,135.01,269.06z"/>
	<path style="fill:#4B738C;" d="M246.398,264.957c0,0-7.149,22.34-44.085,33.362c0,0,5.532-15.66-13.106-11.405"/>
	<polygon style="fill:#EAC0A9;" points="143.76,95.566 143.76,140.191 165.907,132.532 187.675,124.872 199.588,98.319 
		185.888,76.872 160.611,76.872 	"/>
	<path style="fill:#EAC0A9;" d="M181.377,209.638l4.511,36.883c0,0,20.596-18.074,18.936-19.138s0,0,0,0s10.596-4.809-2.17-13.83
		c-12.766-9.021-15.319-10.668-15.319-10.668L181.377,209.638z"/>
	<polyline style="fill:#D8B4A3;" points="185.343,241.554 194.526,230.191 183.888,240.234 185.343,241.554 	"/>
	<path style="fill:#5886A8;" d="M70.406,201.334c0,0-15.241-6.377-22.135-3.879c0,0-14.17,2.353-15.064,19.076
		c0,0-1.957,3.66,5.872,17.957c7.408,13.527,61.435,56.305,67.24,60.879c0.199,0.157,0.475,0.133,0.651-0.05
		c4.116-4.264,15.775-26.598,26.225-27.702c0.437-0.046,0.627-0.567,0.31-0.872l-49.111-47.207
		c-0.019-0.018-0.036-0.038-0.052-0.059L70.406,201.334"/>
	<path style="fill:#F4F6F8;" d="M195.164,286.872c0,0,6.298-2.139,7.49,1.08c1.191,3.218,2.553,34.537,2.553,34.537
		s2.468,5.362-7.957,4.213C197.25,326.702,204.185,304.872,195.164,286.872"/>
	<path style="fill:#DB8D8D;" d="M119.944,110.39c0,0-12.482,7.717-12.482,18.951s-10.681,40.468-10.681,40.468l76.123,3.106
		c0,0,7.111,0.468,7.409,9.872l3.745,28.255c0,0,5.106-5.106,12.936,0c0,0,11.915,14.638,7.83,16.34
		c0,0,12.936-10.894,19.064-12.255c0,0,16.085-3.191,25.064,1.532c7.885,4.148,10,2.894,13.404,10.723
		c0,0,6.468-10.894,5.106-18.723c0,0-5.106-13.957-5.106-19.064c0,0-2.383-55.149-6.468-64c0,0-16.351-21.12-21.489-23.447
		c0,0-22.085-9.234-24.468-5.83c0,0-15.66,14.979-16.681,20.085c-1.021,5.106-22.301,5.111-33.362,1.702
		C153.122,116.021,119.944,110.39,119.944,110.39z"/>
	<path style="fill:#D67676;" d="M157.185,117.398c0,0,2.466,3.455,15.968,2.911s0,0,0,0S162.78,123.37,157.185,117.398"/>
	<path style="fill:#D67676;" d="M157.167,116.617c0,0,6.569,3.945,14.248,1.689c7.739-2.274,3.069,1.914,2.133,2.029
		c-0.936,0.115-15.319,1.814-17.532-2.441"/>
	<polygon style="fill:#D67676;" points="214.082,205.213 238.909,118.745 235.164,155.511 247.76,137.809 242.654,159.255 
		252.867,151.766 239.93,176.277 245.037,173.553 	"/>
	<path style="fill:#D67676;" d="M214.082,205.213c0,0,23.466-16,38.785-2.043C252.867,203.17,212.467,202.255,214.082,205.213z"/>
	<path style="fill:#D67676;" d="M113.617,152.671L113.617,152.671l8.186,17.904h-8.186
		C113.617,170.574,118.963,165.405,113.617,152.671"/>
	<path style="fill:#D67676;" d="M185.888,176.702c0,0,7.767,12.709,21.944,7.622c0.589-0.211,1.189-0.454,1.801-0.729
		C224.952,176.702,187.25,186.66,185.888,176.702z"/>
	<path style="fill:#D67676;" d="M188.872,206.862c0,0,11.314-7.139,17.952-2.288L188.872,206.862z"/>
	<path style="fill:#FFD9C0;" d="M156.199,101.574c0,0,2.881,3.128,5.689,3.128c2.809,0,5.872,2.169,9.702-3.128
		c0,0,7.432-9.468,7.684-14.031c0.252-4.563,8.401-37.224,8.401-37.224l-24.511-14.298l-31.437,11.234l-4.052,18.128l5.617,23.452
		l8.426,16.307L156.199,101.574"/>
	<polygon style="fill:#C1B9B6;" points="76.101,239.894 65.505,168.149 179.377,172.362 188.186,246.66 	"/>
	<path style="fill:#3A3939;" d="M157.167,12.565c0,0-34.108,1.772-36.385,31.371c-1.815,23.6-7.261,22.191-2.355,32.162
		c1.557,3.163,2.355,6.652,2.355,10.177v14.004c0,0.508-0.015,1.023-0.047,1.53c-1.898,30.154-11.128,39.403-8.762,46.551
		c4.011,12.119,13.831,26.518,25.457,18.213c0,0,5.138-5.702,7.862-8.766c0,0,2.424-3.316,4.26-8.331
		c3.399-9.286,0.989-15.438,5.186-25.371c6.692-15.837,4.481-22.85-8.185-32.104c-6.09-4.449-10.356-10.966-12.131-18.296
		l-1.047-4.324l-1.872-9.362c-1.827-5.646,0.551-8.385,5.867-11.022c2.382-1.182,5.329-1.618,8.865-0.386"/>
	
		<ellipse transform="matrix(0.0375 -0.9993 0.9993 0.0375 59.6087 215.5525)" style="fill:none;stroke:#FCE11D;stroke-miterlimit:10;" cx="141.698" cy="76.833" rx="7.795" ry="7.795"/>
	
		<ellipse transform="matrix(0.0995 -0.995 0.995 0.0995 74.7091 226.1571)" style="fill:none;stroke:#FCE11D;stroke-miterlimit:10;" cx="162.304" cy="71.802" rx="7.795" ry="7.795"/>
	<path style="fill:none;stroke:#FCE11D;stroke-miterlimit:10;" d="M149.479,77.356c0.063-1.605,1.09-2.96,2.496-3.359
		c1.607-0.456,2.938,0.558,3.081,0.671"/>
	<polyline style="fill:none;stroke:#FCE11D;stroke-miterlimit:10;" points="169.287,68.332 180.184,57.944 169.177,66.548 	"/>
	<polygon style="opacity:0.12;fill:#4B738C;" points="115.838,282.824 35.739,206.862 38.266,203.259 118.257,278.574 	"/>
	<polygon style="opacity:0.12;fill:#4B738C;" points="143.845,280.536 260.028,223.301 262.356,227.383 147.161,283.515 	"/>
	<path style="fill:#494545;" d="M152.101,10.745c-13.875,5.404-21.764,16.521-20.17,25.787c1.321,7.684,8.83,12.155,9.447,12.511
		c11.314,6.524,21.756-2.247,29.617,1.532c6.338,3.047,11.724,14.6,6.638,52.851c-7.505,20.324-5.664,35.735-3.83,43.915
		c1.391,6.206,4.054,18.082,10.723,19.404c7.837,1.553,20.278-7.319,22.043-10.213c2.738-4.488,8.75-13.277,4-30.128
		c-6.311-22.386,6.578-34.461,2.809-44.936c-2.899-8.055-5.081-6.546-10.468-18.128c-7.408-15.925-5.393-23.313-9.702-31.66
		C189.012,23.556,178.795,14.463,152.101,10.745z"/>
	<rect x="58.898" y="286.563" style="fill:#FFFFFF;" width="2.458" height="12.118"/>
	<rect x="71.274" y="287.394" style="fill:#FFFFFF;" width="2.458" height="15.159"/>
	<rect x="75.529" y="287.862" style="fill:#FFFFFF;" width="2.458" height="16.585"/>
	<rect x="79.725" y="287.952" style="fill:#FFFFFF;" width="2.458" height="17.977"/>
	
		<rect x="179.484" y="299.259" transform="matrix(0.9945 -0.1048 0.1048 0.9945 -31.0211 20.6199)" style="fill:#FFFFFF;" width="2.458" height="12.511"/>
	
		<rect x="174.695" y="299.282" transform="matrix(0.9945 -0.1048 0.1048 0.9945 -31.1177 20.1217)" style="fill:#FFFFFF;" width="2.458" height="13.805"/>
	
		<rect x="170.448" y="299.168" transform="matrix(0.9945 -0.1048 0.1048 0.9945 -31.262 19.683)" style="fill:#FFFFFF;" width="2.458" height="16.343"/>
	
		<rect x="166.193" y="299.074" transform="matrix(0.9945 -0.1048 0.1048 0.9945 -31.3613 19.241)" style="fill:#FFFFFF;" width="2.458" height="17.977"/>
	
		<rect x="161.888" y="298.319" transform="matrix(0.9945 -0.1048 0.1048 0.9945 -31.4247 18.792)" style="fill:#FFFFFF;" width="2.458" height="20.245"/>
	
		<rect x="157.867" y="298.074" transform="matrix(0.9945 -0.1048 0.1048 0.9945 -31.5326 18.3751)" style="fill:#FFFFFF;" width="2.458" height="22.372"/>
	<rect x="63.509" y="286.563" style="fill:#FFFFFF;" width="2.458" height="13.186"/>
	<rect x="67.658" y="286.905" style="fill:#FFFFFF;" width="2.458" height="14.518"/>
</g>
</svg>
